<?xml version="1.0" encoding="utf-8"?>
<!-- Generator: Adobe Illustrator 25.4.1, SVG Export Plug-In . SVG Version: 6.00 Build 0)  -->
<svg version="1.1" id="Graphic_Elements" xmlns="http://www.w3.org/2000/svg" xmlns:xlink="http://www.w3.org/1999/xlink" x="0px"
	 y="0px" viewBox="0 0 1200 1200" style="enable-background:new 0 0 1200 1200;" xml:space="preserve">
<style type="text/css">
	.st0{fill:#FFFFFE;}
	.st1{opacity:0;}
	.st2{fill:#4D4E4C;}
</style>
<path class="st0" d="M807,1136.4H525.8l9.1-105.8c0,0-131.4-78-115.8-183.5c20.4-138.8,38.1-274.7,38.1-274.7s15-286.9,19.3-369.3
	c6-114.9,109.1-114.6,109.1-14.9c0,139.1,1.2,174.6-0.9,202.3c-3,39.3,4.9,136.1,4.9,136.1s22.3-362,22.3-411.2
	c0-48.4,102.8-90.7,108.8,9.1c9.2,151.9-10.2,408.2-10.2,408.2s21.4-307.6,34.4-344.7c18.2-51.4,89.2-45.5,87.7,21.2
	c-3,135.8-16.3,350.8-16.3,350.8s13.2-131.9,22-214.7c6-57.4,81.6-96.8,84.7,21.2c1.7,65.3,4,148.8-6.1,229.8
	c-12.6,101.9,12.8,221.2,0.6,276C892.3,984.5,810,1039.6,810,1039.6L807,1136.4z"/>
<g class="st1">
	<path d="M807,1136.4H525.8l9.1-105.8c0,0-131.4-78-115.8-183.5c20.4-138.8,38.1-274.7,38.1-274.7s15-286.9,19.3-369.3
		c6-114.9,109.1-114.6,109.1-14.9c0,139.1,1.2,174.6-0.9,202.3c-3,39.3,4.9,136.1,4.9,136.1s22.3-362,22.3-411.2
		c0-48.4,102.8-90.7,108.8,9.1c9.2,151.9-10.2,408.2-10.2,408.2s21.4-307.6,34.4-344.7c18.2-51.4,89.2-45.5,87.7,21.2
		c-3,135.8-16.3,350.8-16.3,350.8s13.2-131.9,22-214.7c6-57.4,81.6-96.8,84.7,21.2c1.7,65.3,4,148.8-6.1,229.8
		c-12.6,101.9,12.8,221.2,0.6,276C892.3,984.5,810,1039.6,810,1039.6L807,1136.4z"/>
</g>
<path class="st2" d="M807,1150H525.8c-7.5,0-13.6-6.1-13.6-13.6c0-0.4,0-0.8,0-1.2l8.4-97.6c-28.8-19-129.6-93.2-115-192.5
	c19.5-132.8,36.8-264.6,38-274c0.7-13.7,15-288.4,19.3-368.8c3.7-69.6,40.2-100.9,73.2-100.9h1.4c24.8,0.7,51.1,19.8,59.3,59.9
	c1-21.7,1.6-38,1.6-46c0-35.5,38.9-64.3,72.3-65.3c28.9-1,60.4,18,63.8,73.6c1,15.7,1.6,32.5,2,50c12.7-24.1,37.3-37.3,62.7-32.7
	c22.4,4.1,48.2,24.5,47.2,68.5c-0.6,27.3-1.6,58-2.9,89.5c11.7-14.3,27.3-23.2,43-22.7c14.4,0.6,48.2,10.5,50.2,89.8l0.1,3.2
	c1.7,65.9,3.8,148-6.2,228.6c-6.5,52.2-2.7,109.7,0.7,160.5c3.2,47.7,5.9,88.9-0.3,116.8c-22.3,100.1-87.3,156.3-107.3,171.6
	l-2.8,90.1C820.3,1144.1,814.3,1150,807,1150z M540.6,1122.7h253.2l2.6-83.6c0.1-4.4,2.4-8.4,6-10.9c0.8-0.5,78.2-53.8,101.7-159.2
	c5.4-24.1,2.8-63.5-0.2-109c-3.4-52-7.3-110.8-0.5-165.6c9.8-78.6,7.7-159.5,6-224.5l-0.1-3.2c-1.2-46-13.7-62.8-24-63.2
	c-13.1-0.9-30.9,18.6-33.4,43.1c-8.6,81.8-21.8,213.3-22,214.6c-0.8,7.5-7.6,12.9-15,12.1c-7.2-0.8-12.5-7-12.1-14.3
	c0.1-2.2,13.3-216.2,16.3-350.2c0.6-26.8-12.4-38.8-24.8-41.1s-29.2,4.5-36.4,24.7c-8.7,24.6-23.5,198.2-32.3,321
	c-0.8,12.5-1.4,19.8-1.4,20.3c-0.7,7.5-7.4,13-14.9,12.3c-7.3-0.7-12.7-7-12.3-14.3c0.2-3.5,0.7-10.1,1.4-19.1
	c4.2-62.1,16.5-261.9,8.9-387.3c-1.1-18-7.1-48-34.6-48h-1.2c-22.3,0.7-45.9,20.2-45.9,38.1c0,49.1-21.5,397.3-22.4,412.1
	c-0.4,7.1-6.3,12.7-13.5,12.8h-0.1c-7.1,0-13-5.4-13.6-12.5c-0.3-4-8-98.3-4.9-138.2c1.4-18.1,1.3-40.5,1.1-94.5
	c-0.1-26.7-0.2-61.2-0.2-106.8c0-40.2-18.3-59.1-35.3-59.5h-0.7c-21,0-43.3,25.6-45.9,75.1c-4.3,82.4-19.2,369.2-19.2,369.2
	c0,0.4,0,0.7-0.1,1.1c-0.2,1.4-18,137.6-38.2,275c-14,95.1,108.1,169.1,109.3,169.8c4.5,2.7,7,7.7,6.6,12.9L540.6,1122.7z"/>
<path class="st0" d="M431.1,925.7c0,0-57.4-124-75.6-157.2s-64-147.9-75.6-175.4c-24.2-57.5,57.5-84.7,93.8-48.4
	s90.7,139.1,90.7,139.1s62.4,23.8,81.6,30.2c36.3,12.1,60.5,63.5,60.5,63.5"/>
<g class="st1">
	<path d="M431.1,925.7c0,0-57.4-124-75.6-157.2s-64-147.9-75.6-175.4c-24.2-57.5,57.5-84.7,93.8-48.4s90.7,139.1,90.7,139.1
		s62.4,23.8,81.6,30.2c36.3,12.1,60.5,63.5,60.5,63.5"/>
</g>
<path class="st2" d="M431.1,939.3c-5.3,0-10.1-3.1-12.4-7.9c-0.6-1.2-57.5-124-75.2-156.4c-14.8-27.1-46.4-104.1-65.3-150.2
	c-4.7-11.5-8.5-20.8-10.9-26.5c-11.6-27.7-4.1-54.8,19.8-70.8c25.5-17.1,69.5-19.1,96.2,7.5c33.3,33.3,79.5,117.1,90.7,137.8
	c14.9,5.7,60.7,23,76.3,28.2c41.4,13.8,67.4,68.3,68.5,70.6c3.4,6.7,0.6,14.9-6.1,18.3c-6.7,3.4-14.9,0.6-18.3-6.1
	c-0.1-0.2-0.2-0.4-0.3-0.6c-6.1-12.8-27.4-48-52.5-56.4c-19.3-6.4-79.6-29.5-82.2-30.4c-3.1-1.2-5.6-3.4-7.2-6.3
	c-0.5-1-53.9-101.4-88.3-135.8c-16.3-16.3-45.1-15.3-61.7-4.2c-9.1,6.1-18.3,17.7-9.9,37.7c2.4,5.7,6.2,15.1,11,26.7
	c17.5,42.5,50,121.7,64,147.5c18.1,33.3,73.6,153,76,158c3.2,6.8,0.2,14.9-6.6,18.1C435.1,938.8,433.1,939.3,431.1,939.3
	L431.1,939.3z"/>
</svg>
